<svg xmlns="http://www.w3.org/2000/svg" fill="none" viewBox="0 0 373 302">
    <defs/>
    <path fill="#FDDA39" d="M6.5 216.65l51-24a129.3798 129.3798 0 004.31 26.73L6.5 216.65zM64.62 142a128.3943 128.3943 0 00-6.39 27.24L6.5 144.84 64.62 142zm25.7-43.3l-.37.41a129.7895 129.7895 0 00-16.35 23L34 78.5l55.6 20 .72.2zm39.57-30l-1.21.6a130.2924 130.2924 0 00-22.8 14.7l-.74.6-.44-1.23-19.9999-55.61L128.5 67.43l1.39 1.27zm47.46-12.85l-1.74.13a129.4996 129.4996 0 00-26 5l-1.5.46.1-2.16 2.85-59 25.21 53.43 1.08 2.14zm48.51 5.56l-1.5-.46a129.5066 129.5066 0 00-26-5l-1.74-.13 1-2.18L222.89.24l2.85 59 .12 2.17zm63.39-33.69L269.3 83.33l-.44 1.23-.74-.6a130.303 130.303 0 00-22.8-14.66l-1.21-.6 1.39-1.27 43.74-39.72.01.01zM340 78.5l-39.6 43.64a129.7998 129.7998 0 00-16.35-23l-.37-.41.73-.26 55.6-20-.01.03zm27.46 138.13l-55.27 2.67a129.3664 129.3664 0 004.31-26.73l51 24-.04.06zm0-71.79l-51.73 24.42a128.3796 128.3796 0 00-6.35-27.26l58.12 2.81-.04.03z"/>
    <path fill="#C670D0" d="M112.62 256.08l-1.68-.7 2.22-.8-.54 1.5zm-55.3699-70.84c0 1.827.04 3.647.12 5.46l-35.56-10 36.26-10.16a131.327 131.327 0 00-.82 14.7zM69.23 239.77L34.39 244l28.11-22.12a127.9793 127.9793 0 006.73 17.89zm4.33-117.55a128.2425 128.2425 0 00-8.73 19.22l-30.44-23.92 39.17 4.7zM105.88 84l-.74.6a131.1552 131.1552 0 00-14.8199 14.1l-.37.41-.36-.67-19.39-34.51L104.7 83.33l1.18.67zm43.76-23l-1.5.46a128.558 128.558 0 00-18.25 7.29l-1.21.6-.18-1.87-4.71-39.31 24.45 31.13 1.4 1.7zm48.75-5l-1.74-.13c-3.18-.24-6.397-.36-9.65-.36s-6.47.12-9.65.36l-1.74.13.71-2.31L187 15.55l10.68 38.12.71 2.33zm51.82-27.88l-4.71 39.31-.18 1.87-1.21-.6a128.558 128.558 0 00-18.25-7.29l-1.5-.46 1.4-1.7 24.45-31.13zm53.59 35.81l-19.39 34.51-.36.67-.37-.41a131.1752 131.1752 0 00-14.82-14.14l-.74-.6 1.18-.63 34.5-19.4zm35.81 53.59l-30.44 23.92a128.2726 128.2726 0 00-8.73-19.22l39.17-4.7zm0 126.48l-34.84-4.18a127.9417 127.9417 0 006.73-17.89L339.61 244zm-22.98-53.3c.08-1.813.12-3.633.12-5.46 0-4.898-.273-9.792-.82-14.66l36.26 10.16-35.56 9.96z"/>
    <path fill="#FDDA39" d="M106.75 253.64l4.19 1.74-21.3499 7.66 5-9.4H106.75z"/>
    <path fill="#FDDA39" d="M110.94 255.38l2.22-.8-.54 1.5-1.68-.7zM284.41 263l-21.35-7.66-1.68.7-1.41.58a5.6558 5.6558 0 01-4.35 0l-7.27-3h31.06l5 9.38z"/>
    <path fill="#fff" d="M309.38 142h-.9l.69-.54.21.54z"/>
    <path fill="#FDDA39" d="M309.17 185.24c0 67.48-54.7 100.18-122.17 100.18S64.8301 252.72 64.8301 185.24c0-32.401 12.8714-63.476 35.7829-86.3872C123.524 75.9415 154.599 63.07 187 63.07c32.402 0 63.476 12.8715 86.387 35.7828 22.912 22.9112 35.783 53.9862 35.783 86.3872z"/>
    <path fill="#FDD93A" d="M308.88 185.24c0 67.32-54.57 100-121.88 100s-121.88-32.72-121.88-100c0-32.325 12.8409-63.325 35.698-86.1822C123.675 76.2009 154.675 63.36 187 63.36s63.325 12.8409 86.182 35.6978c22.857 22.8572 35.698 53.8572 35.698 86.1822z"/>
    <path fill="#FCD93B" d="M308.59 185.24c0 67.16-54.44 99.89-121.59 99.89S65.41 252.4 65.41 185.24c0-32.248 12.8104-63.175 35.613-85.9771C123.825 76.4603 154.752 63.65 187 63.65c32.248 0 63.175 12.8103 85.977 35.6129C295.78 122.065 308.59 152.992 308.59 185.24z"/>
    <path fill="#FCD83C" d="M308.3 185.24c0 67-54.3 99.76-121.3 99.76S65.7001 252.24 65.7001 185.24c0-32.171 12.7798-63.024 35.5279-85.7721C123.976 76.7198 154.829 63.94 187 63.94c32.171 0 63.024 12.7798 85.772 35.5279C295.52 122.216 308.3 153.069 308.3 185.24z"/>
    <path fill="#FCD73D" d="M308 185.24c0 66.84-54.18 99.61-121 99.61S66 252.08 66 185.24c0-32.091 12.7482-62.868 35.44-85.5599C124.132 76.9882 154.909 64.24 187 64.24s62.868 12.7482 85.56 35.4401S308 153.149 308 185.24z"/>
    <path fill="#FBD63E" d="M307.72 185.24c0 66.68-54.05 99.47-120.72 99.47S66.28 251.92 66.28 185.24c0-32.017 12.7187-62.723 35.358-85.3619C124.277 77.2387 154.983 64.52 187 64.52c32.017 0 62.723 12.7187 85.362 35.3581 22.639 22.6389 35.358 53.3449 35.358 85.3619z"/>
    <path fill="#FBD63F" d="M307.43 185.24c0 66.52-53.92 99.32-120.43 99.32s-120.4299-32.8-120.4299-99.32c0-31.94 12.6881-62.572 35.2729-85.157C124.428 77.4981 155.06 64.81 187 64.81c31.94 0 62.572 12.6881 85.157 35.273 22.585 22.585 35.273 53.217 35.273 85.157z"/>
    <path fill="#FAD540" d="M307.15 185.24c0 66.36-53.8 99.18-120.15 99.18-66.35 0-120.15-32.82-120.15-99.18 0-31.866 12.6586-62.426 35.191-84.959C124.574 77.7486 155.134 65.09 187 65.09s62.426 12.6586 84.959 35.191c22.532 22.533 35.191 53.093 35.191 84.959z"/>
    <path fill="#FAD441" d="M306.86 185.24c0 66.2-53.66 99-119.86 99s-119.86-32.84-119.86-99c0-31.789 12.6281-62.276 35.106-84.754C124.724 78.0081 155.211 65.38 187 65.38s62.276 12.6281 84.754 35.106c22.478 22.478 35.106 52.965 35.106 84.754z"/>
    <path fill="#FAD442" d="M306.57 185.24c0 66-53.53 98.89-119.57 98.89-66.04 0-119.5699-32.85-119.5699-98.89 0-31.712 12.5975-62.125 35.0209-84.549C124.875 78.2675 155.288 65.67 187 65.67c31.712 0 62.125 12.5975 84.549 35.021 22.424 22.424 35.021 52.837 35.021 84.549z"/>
    <path fill="#F9D343" d="M306.28 185.24c0 65.88-53.4 98.75-119.28 98.75S67.72 251.12 67.72 185.24c0-31.635 12.5669-61.974 34.936-84.344C125.026 78.527 155.365 65.96 187 65.96c31.635 0 61.974 12.567 84.344 34.936 22.369 22.37 34.936 52.709 34.936 84.344z"/>
    <path fill="#F9D244" d="M306 185.24c0 65.72-53.27 98.61-119 98.61-65.73 0-119-32.85-119-98.61 0-31.561 12.5375-61.829 34.854-84.146C125.171 78.7775 155.439 66.24 187 66.24s61.829 12.5375 84.146 34.854C293.463 123.411 306 153.679 306 185.24z"/>
    <path fill="#F9D245" d="M305.7 185.24c0 65.56-53.14 98.46-118.7 98.46S68.3 250.8 68.3 185.24c0-31.481 12.5059-61.673 34.766-83.934C125.327 79.0458 155.519 66.54 187 66.54c31.481 0 61.673 12.5058 83.934 34.766 22.26 22.261 34.766 52.453 34.766 83.934z"/>
    <path fill="#F8D146" d="M305.41 185.24c0 65.4-53 98.32-118.41 98.32S68.5901 250.64 68.5901 185.24c0-31.404 12.4753-61.522 34.6819-83.729C125.478 79.3053 155.596 66.83 187 66.83c31.404 0 61.522 12.4753 83.729 34.681 22.206 22.207 34.681 52.325 34.681 83.729z"/>
    <path fill="#F8D047" d="M305.13 185.24c0 65.24-52.89 98.18-118.13 98.18S68.87 250.48 68.87 185.24c0-31.33 12.4458-61.377 34.599-83.531C125.623 79.5558 155.67 67.11 187 67.11c31.33 0 61.377 12.4458 83.531 34.599 22.153 22.154 34.599 52.201 34.599 83.531z"/>
    <path fill="#F8CF48" d="M304.84 185.24c0 65.08-52.76 98-117.84 98-65.08 0-117.84-32.95-117.84-98 0-31.253 12.4153-61.226 34.515-83.325C125.774 79.8152 155.747 67.4 187 67.4s61.226 12.4152 83.326 34.515c22.099 22.099 34.514 52.072 34.514 83.325z"/>
    <path fill="#F7CF49" d="M304.55 185.24c0 64.92-52.63 97.89-117.55 97.89-64.92 0-117.5499-33-117.5499-97.89 0-31.176 12.3847-61.076 34.4299-83.12 22.045-22.0453 51.944-34.43 83.12-34.43 31.176 0 61.076 12.3847 83.12 34.43 22.045 22.044 34.43 51.944 34.43 83.12z"/>
    <path fill="#F7CE4A" d="M304.26 185.24C304.26 250 251.76 283 187 283S69.74 250 69.74 185.24c0-31.099 12.3541-60.925 34.345-82.915C126.075 80.3341 155.901 67.98 187 67.98c31.099 0 60.925 12.3541 82.915 34.345 21.991 21.99 34.345 51.816 34.345 82.915z"/>
    <path fill="#F6CD4B" d="M304 185.24c0 64.61-52.37 97.61-117 97.61s-117-33-117-97.61c.6923-30.564 13.3198-59.642 35.181-81.014 21.86-21.3708 51.217-33.3367 81.789-33.3367 30.572 0 59.929 11.9659 81.789 33.3367 21.861 21.372 34.489 50.45 35.181 81.014h.06z"/>
    <path fill="#F6CD4C" d="M303.68 185.24c0 64.45-52.24 97.46-116.68 97.46s-116.6799-33-116.6799-97.46c0-30.945 12.293-60.623 34.1749-82.505C126.377 80.853 156.055 68.56 187 68.56c30.946 0 60.624 12.293 82.505 34.175 21.882 21.882 34.175 51.56 34.175 82.505z"/>
    <path fill="#F6CC4D" d="M303.39 185.24c0 64.29-52.11 97.32-116.39 97.32s-116.39-33-116.39-97.32c0-30.869 12.2625-60.473 34.09-82.3 21.827-21.8275 51.431-34.09 82.3-34.09s60.473 12.2625 82.3 34.09c21.828 21.827 34.09 51.431 34.09 82.3z"/>
    <path fill="#F5CB4E" d="M303.1 185.24c0 64.13-52 97.18-116.1 97.18S70.9 249.37 70.9 185.24c0-30.792 12.2319-60.322 34.005-82.095C126.678 81.3719 156.208 69.14 187 69.14s60.322 12.2319 82.095 34.005c21.773 21.773 34.005 51.303 34.005 82.095z"/>
    <path fill="#F5CB4F" d="M302.82 185.24c0 64-51.86 97-115.82 97-63.96 0-115.8199-33.06-115.8199-97 0-30.717 12.2024-60.177 33.9229-81.897C126.823 81.6224 156.283 69.42 187 69.42c30.717 0 60.177 12.2024 81.897 33.923 21.721 21.72 33.923 51.18 33.923 81.897z"/>
    <path fill="#F5CA50" d="M302.53 185.24c0 63.81-51.73 96.89-115.53 96.89-63.8 0-115.53-33.08-115.53-96.89 0-30.64 12.1718-60.026 33.838-81.692C126.974 81.8819 156.36 69.71 187 69.71c30.64 0 60.026 12.1719 81.692 33.838 21.666 21.666 33.838 51.052 33.838 81.692z"/>
    <path fill="#F4C951" d="M302.24 185.24c0 63.65-51.6 96.75-115.24 96.75-63.64 0-115.24-33.1-115.24-96.75 0-30.564 12.1413-59.875 33.753-81.487C127.125 82.1413 156.436 70 187 70c30.564 0 59.875 12.1413 81.487 33.753 21.612 21.612 33.753 50.923 33.753 81.487z"/>
    <path fill="#F4C852" d="M302 185.24c0 63.49-51.46 96.6-114.95 96.6s-115-33.11-115-96.6c.882-29.9 13.3795-58.279 34.841-79.117C128.352 85.2861 157.087 73.6308 187 73.6308c29.913 0 58.648 11.6553 80.11 32.4922 21.461 20.838 33.958 49.217 34.84 79.117h.05z"/>
    <path fill="#F4C853" d="M301.66 185.24c0 63.33-51.33 96.46-114.66 96.46S72.3401 248.57 72.3401 185.24c0-30.41 12.0802-59.574 33.5829-81.077C127.426 82.6602 156.59 70.58 187 70.58c30.41 0 59.574 12.0802 81.077 33.583 21.503 21.503 33.583 50.667 33.583 81.077z"/>
    <path fill="#F3C754" d="M301.37 185.24c0 63.17-51.2 96.32-114.37 96.32S72.63 248.41 72.63 185.24c0-30.333 12.0497-59.423 33.498-80.872C127.577 82.9197 156.667 70.87 187 70.87s59.423 12.0497 80.872 33.498c21.448 21.449 33.498 50.539 33.498 80.872z"/>
    <path fill="#F3C655" d="M301.08 185.24c0 63-51.07 96.18-114.08 96.18S72.92 248.25 72.92 185.24c0-30.256 12.0192-59.273 33.413-80.667C127.727 83.1791 156.744 71.16 187 71.16s59.273 12.0191 80.667 33.413c21.394 21.394 33.413 50.411 33.413 80.667z"/>
    <path fill="#F2C656" d="M300.8 185.24c0 62.85-50.95 96-113.8 96-62.85 0-113.7999-33.18-113.7999-96 0-30.182 11.9896-59.127 33.3309-80.469C127.873 83.4296 156.818 71.44 187 71.44c30.182 0 59.127 11.9896 80.469 33.331 21.341 21.342 33.331 50.287 33.331 80.469z"/>
    <path fill="#F2C557" d="M300.51 185.24c0 62.69-50.82 95.89-113.51 95.89-62.69 0-113.51-33.2-113.51-95.89.3961-29.841 12.5285-58.326 33.771-79.288 21.242-20.9621 49.885-32.7153 79.729-32.7153s58.487 11.7532 79.729 32.7153c21.243 20.962 33.375 49.447 33.771 79.288h.02z"/>
    <path fill="#F2C458" d="M300.22 185.24c0 62.53-50.69 95.76-113.22 95.76S73.78 247.77 73.78 185.24c0-30.028 11.9285-58.826 33.161-80.059C128.174 83.9485 156.972 72.02 187 72.02s58.826 11.9285 80.059 33.161c21.233 21.233 33.161 50.031 33.161 80.059z"/>
    <path fill="#F1C459" d="M299.93 185.24c0 62.37-50.56 95.6-112.93 95.6-62.37 0-112.9299-33.23-112.9299-95.6 0-29.951 11.8979-58.675 33.0759-79.854C128.325 84.2079 157.049 72.31 187 72.31s58.675 11.8979 79.854 33.076c21.178 21.179 33.076 49.903 33.076 79.854z"/>
    <path fill="#F1C35A" d="M299.64 185.24c0 62.21-50.43 95.46-112.64 95.46S74.36 247.45 74.36 185.24c0-29.874 11.8674-58.524 32.991-79.649C128.476 84.4674 157.126 72.6 187 72.6c29.874 0 58.524 11.8674 79.648 32.991 21.125 21.125 32.992 49.775 32.992 79.649z"/>
    <path fill="#F1C25B" d="M299.35 185.24c0 62.06-50.3 95.32-112.35 95.32S74.65 247.3 74.65 185.24c0-29.797 11.8369-58.374 32.907-79.443C128.626 84.7268 157.203 72.89 187 72.89c29.797 0 58.374 11.8368 79.443 32.907 21.07 21.069 32.907 49.646 32.907 79.443z"/>
    <path fill="#F0C15C" d="M299.06 185.24c0 61.9-50.17 95.17-112.06 95.17S74.9401 247.14 74.9401 185.24c0-29.72 11.8062-58.223 32.8219-79.238C128.777 84.9863 157.28 73.18 187 73.18s58.223 11.8063 79.238 32.822c21.016 21.015 32.822 49.518 32.822 79.238z"/>
    <path fill="#F0C15D" d="M298.77 185.24c0 61.74-50 95-111.77 95-61.77 0-111.77-33.24-111.77-95 0-29.643 11.7757-58.072 32.737-79.033C128.928 85.2457 157.357 73.47 187 73.47s58.072 11.7757 79.033 32.737c20.961 20.961 32.737 49.39 32.737 79.033z"/>
    <path fill="#F0C05E" d="M298.49 185.24c0 61.58-49.92 94.89-111.49 94.89-61.57 0-111.49-33.31-111.49-94.89 0-29.572 11.7473-57.932 32.658-78.842 20.91-20.9107 49.27-32.658 78.842-32.658 29.572 0 57.932 11.7473 78.842 32.658 20.911 20.91 32.658 49.27 32.658 78.842h-.02z"/>
    <path fill="#EFBF5F" d="M298.2 185.24c0 61.42-49.79 94.76-111.2 94.76-61.41 0-111.2-33.34-111.2-94.76 0-29.492 11.7157-57.776 32.57-78.63 20.854-20.8543 49.138-32.57 78.63-32.57 29.492 0 57.776 11.7157 78.63 32.57 20.854 20.854 32.57 49.138 32.57 78.63z"/>
    <path fill="#EFBF60" d="M297.91 185.24c0 61.26-49.66 94.6-110.91 94.6S76.0901 246.5 76.0901 185.24c0-29.415 11.6851-57.626 32.4849-78.425 20.8-20.7999 49.01-32.485 78.425-32.485s57.626 11.6851 78.425 32.485c20.8 20.799 32.485 49.01 32.485 78.425z"/>
    <path fill="#EEBE61" d="M297.62 185.24c0 61.1-49.53 94.46-110.62 94.46S76.38 246.34 76.38 185.24c0-29.338 11.6546-57.475 32.4-78.22 20.745-20.7454 48.882-32.4 78.22-32.4s57.475 11.6546 78.22 32.4c20.745 20.745 32.4 48.882 32.4 78.22z"/>
    <path fill="#EEBD62" d="M297.33 185.24c0 60.94-49.4 94.32-110.33 94.32S76.67 246.18 76.67 185.24c0-29.261 11.6241-57.324 32.315-78.015C129.676 86.534 157.739 74.91 187 74.91c29.261 0 57.324 11.624 78.015 32.315 20.691 20.691 32.315 48.754 32.315 78.015z"/>
    <path fill="#EEBD63" d="M297 185.24c0 60.78-49.27 94.17-110 94.17S77 246 77 185.24c0-29.184 11.5935-57.174 32.23-77.81 20.636-20.6365 48.626-32.23 77.81-32.23 29.184 0 57.174 11.5935 77.81 32.23 20.637 20.636 32.23 48.626 32.23 77.81H297z"/>
    <path fill="#EDBC64" d="M296.75 185.24c0 60.62-49.13 94-109.75 94s-109.75-33.41-109.75-94c0-29.108 11.5629-57.023 32.145-77.605C129.977 87.0529 157.892 75.49 187 75.49c29.108 0 57.023 11.5629 77.605 32.145 20.582 20.582 32.145 48.497 32.145 77.605z"/>
    <path fill="#EDBB65" d="M296.47 185.24c0 60.46-49 93.89-109.47 93.89S77.53 245.7 77.53 185.24c0-29.033 11.5334-56.877 32.063-77.407C130.123 87.3034 157.967 75.77 187 75.77c29.033 0 56.877 11.5334 77.407 32.063 20.53 20.53 32.063 48.374 32.063 77.407z"/>
    <path fill="#EDBA66" d="M296.18 185.24c0 60.3-48.88 93.76-109.18 93.76-60.3 0-109.1799-33.46-109.1799-93.76 0-28.956 11.5028-56.727 31.9779-77.202C130.273 87.5629 158.044 76.06 187 76.06c28.956 0 56.727 11.5029 77.202 31.978 20.475 20.475 31.978 48.246 31.978 77.202z"/>
    <path fill="#ECBA67" d="M295.89 185.24c0 60.14-48.75 93.6-108.89 93.6s-108.89-33.46-108.89-93.6c0-28.879 11.4723-56.576 31.893-76.997C130.424 87.8223 158.121 76.35 187 76.35c28.879 0 56.576 11.4723 76.997 31.893 20.421 20.421 31.893 48.118 31.893 76.997z"/>
    <path fill="#ECB968" d="M295.6 185.24c0 60-48.62 93.46-108.6 93.46S78.4 245.22 78.4 185.24c0-28.803 11.4418-56.425 31.808-76.792C130.575 88.0817 158.198 76.64 187 76.64c28.803 0 56.425 11.4417 76.792 31.808 20.366 20.367 31.808 47.989 31.808 76.792z"/>
    <path fill="#ECB869" d="M295.31 185.24c0 59.82-48.49 93.32-108.31 93.32s-108.3099-33.5-108.3099-93.32c0-28.726 11.4112-56.275 31.7229-76.587C130.725 88.3412 158.274 76.93 187 76.93c28.726 0 56.275 11.4112 76.587 31.723 20.312 20.312 31.723 47.861 31.723 76.587z"/>
    <path fill="#EBB86A" d="M295 185.24c0 59.66-48.36 93.17-108 93.17S79 244.9 79 185.24c0-28.643 11.3785-56.114 31.632-76.368C130.886 88.6185 158.357 77.24 187 77.24c28.643 0 56.114 11.3785 76.368 31.632C283.621 129.126 295 156.597 295 185.24z"/>
    <path fill="#EBB76B" d="M294.73 185.24c0 59.5-48.23 93-107.73 93-59.5 0-107.73-33.53-107.73-93 0-28.572 11.3501-55.973 31.553-76.177C131.027 88.8601 158.428 77.51 187 77.51c28.572 0 55.973 11.3501 76.177 31.553 20.203 20.204 31.553 47.605 31.553 76.177z"/>
    <path fill="#EAB66C" d="M294.44 185.24c0 59.35-48.1 92.89-107.44 92.89-59.34 0-107.4399-33.54-107.4399-92.89 0-28.495 11.3195-55.823 31.4689-75.972C131.177 89.1195 158.505 77.8 187 77.8c28.495 0 55.823 11.3195 75.972 31.468 20.149 20.149 31.468 47.477 31.468 75.972z"/>
    <path fill="#EAB56D" d="M294.16 185.24c0 59.19-48 92.74-107.16 92.74S79.8401 244.43 79.8401 185.24c0-28.421 11.29-55.677 31.3869-75.774C131.323 89.37 158.579 78.08 187 78.08s55.677 11.29 75.774 31.386c20.096 20.097 31.386 47.353 31.386 75.774z"/>
    <path fill="#EAB56E" d="M293.87 185.24c0 59-47.85 92.6-106.87 92.6s-106.87-33.57-106.87-92.6c0-28.344 11.2595-55.526 31.302-75.569C131.474 89.6295 158.656 78.37 187 78.37s55.527 11.2595 75.569 31.301c20.042 20.043 31.301 47.225 31.301 75.569z"/>
    <path fill="#E9B46F" d="M293.58 185.24c0 58.87-47.72 92.46-106.58 92.46S80.42 244.11 80.42 185.24c0-28.267 11.229-55.376 31.217-75.363C131.624 89.8889 158.733 78.66 187 78.66c28.267 0 55.376 11.2289 75.363 31.217 19.988 19.987 31.217 47.096 31.217 75.363z"/>
    <path fill="#E9B370" d="M293.29 185.24c0 58.71-47.59 92.31-106.29 92.31S80.7101 244 80.7101 185.24c0-28.19 11.1984-55.225 31.1319-75.158C131.775 90.1484 158.81 78.95 187 78.95c28.19 0 55.225 11.1984 75.158 31.132 19.934 19.933 31.132 46.968 31.132 75.158z"/>
    <path fill="#E9B371" d="M293 185.24c0 58.55-47.46 92.17-106 92.17S81 243.79 81 185.24c0-28.113 11.1678-55.074 31.047-74.953C131.926 90.4078 158.887 79.24 187 79.24s55.074 11.1678 74.953 31.047C281.832 130.166 293 157.127 293 185.24z"/>
    <path fill="#E8B272" d="M292.71 185.24c0 58.39-47.33 92-105.71 92-58.38 0-105.71-33.64-105.71-92a105.707 105.707 0 018.0467-40.453 105.706 105.706 0 0122.9153-34.295 105.7045 105.7045 0 0134.295-22.9153 105.707 105.707 0 0180.906 0 105.7045 105.7045 0 0134.295 22.9153 105.6973 105.6973 0 0122.915 34.295 105.696 105.696 0 018.047 40.453z"/>
    <path fill="#E8B173" d="M292.42 185.24c0 58.23-47.2 91.88-105.42 91.88S81.5801 243.47 81.5801 185.24c0-27.959 11.1067-54.773 30.8769-74.543C132.227 90.9267 159.041 79.82 187 79.82c27.959 0 54.773 11.1067 74.543 30.877 19.77 19.77 30.877 46.584 30.877 74.543z"/>
    <path fill="#E8B174" d="M292.14 185.24c0 58.07-47.08 91.76-105.14 91.76S81.86 243.31 81.86 185.24c0-27.885 11.0772-54.628 30.795-74.345C132.372 91.1772 159.115 80.1 187 80.1c27.885 0 54.628 11.0772 74.345 30.795 19.718 19.717 30.795 46.46 30.795 74.345z"/>
    <path fill="#E7B075" d="M291.85 185.24c0 57.91-46.94 91.6-104.85 91.6s-104.85-33.69-104.85-91.6c0-27.808 11.0467-54.477 30.71-74.14 19.663-19.6634 46.332-30.71 74.14-30.71s54.477 11.0466 74.14 30.71c19.663 19.663 30.71 46.332 30.71 74.14z"/>
    <path fill="#E7AF76" d="M291.56 185.24c0 57.75-46.81 91.46-104.56 91.46S82.4401 243 82.4401 185.24c0-27.731 11.0161-54.326 30.6249-73.935C132.674 91.6961 159.269 80.68 187 80.68s54.326 11.0161 73.935 30.625c19.609 19.609 30.625 46.204 30.625 73.935z"/>
    <path fill="#E6AE77" d="M291.27 185.24c0 57.59-46.68 91.31-104.27 91.31-57.59 0-104.27-33.72-104.27-91.31 0-27.654 10.9855-54.176 30.54-73.73 19.554-19.5544 46.076-30.54 73.73-30.54 27.654 0 54.176 10.9856 73.73 30.54 19.554 19.554 30.54 46.076 30.54 73.73z"/>
    <path fill="#E6AE78" d="M291 185.24c0 57.43-46.55 91.17-104 91.17S83 242.67 83 185.24c0-27.583 10.9571-54.035 30.461-73.539C132.965 92.1971 159.417 81.24 187 81.24s54.035 10.9571 73.539 30.461C280.043 131.205 291 157.657 291 185.24z"/>
    <path fill="#E6AD79" d="M290.69 185.24c0 57.27-46.42 91-103.69 91-57.27 0-103.6899-33.76-103.6899-91 0-27.5 10.9244-53.874 30.3699-73.32C133.126 92.4744 159.5 81.55 187 81.55c27.5 0 53.874 10.9244 73.32 30.37 19.446 19.446 30.37 45.82 30.37 73.32z"/>
    <path fill="#E5AC7A" d="M290.4 185.24c0 57.11-46.29 90.88-103.4 90.88-57.11 0-103.4-33.77-103.4-90.88 0-13.579 2.6745-27.024 7.8708-39.569a103.4071 103.4071 0 0122.4142-33.546A103.4052 103.4052 0 01187 81.84a103.4052 103.4052 0 0173.115 30.285c9.601 9.602 17.218 21 22.414 33.546a103.4027 103.4027 0 017.871 39.569z"/>
    <path fill="#E5AC7B" d="M290.11 185.24C290.11 242.19 244 276 187 276S83.89 242.19 83.89 185.24c0-27.346 10.8634-53.573 30.2-72.91 19.337-19.3367 45.564-30.2 72.91-30.2 27.346 0 53.573 10.8633 72.91 30.2 19.337 19.337 30.2 45.564 30.2 72.91z"/>
    <path fill="#E5AB7C" d="M289.83 185.24c0 56.79-46 90.6-102.83 90.6S84.17 242 84.17 185.24c0-27.272 10.8339-53.427 30.118-72.712C133.573 93.2438 159.728 82.41 187 82.41c27.272 0 53.427 10.8338 72.712 30.118 19.284 19.285 30.118 45.44 30.118 72.712z"/>
    <path fill="#E4AA7D" d="M289.54 185.24c0 56.63-45.91 90.45-102.54 90.45-56.63 0-102.5399-33.82-102.5399-90.45 0-27.195 10.8033-53.277 30.0329-72.507C133.723 93.5033 159.805 82.7 187 82.7c27.195 0 53.277 10.8033 72.507 30.033 19.23 19.23 30.033 45.312 30.033 72.507z"/>
    <path fill="#E4AA7E" d="M289.25 185.24c0 56.48-45.78 90.31-102.25 90.31S84.75 241.72 84.75 185.24c0-27.118 10.7727-53.126 29.948-72.302C133.874 93.7627 159.882 82.99 187 82.99c27.118 0 53.126 10.7727 72.302 29.948 19.175 19.176 29.948 45.184 29.948 72.302z"/>
    <path fill="#E4A97F" d="M289 185.24c0 56.32-45.65 90.17-102 90.17S85.0001 241.56 85.0001 185.24A101.9998 101.9998 0 01186.96 80.3837c13.635 0 27.132 2.7338 39.693 8.0399a102.0007 102.0007 0 0155.342 56.9144 101.9997 101.9997 0 016.925 39.902h.08z"/>
    <path fill="#E3A880" d="M288.67 185.24c0 56.16-45.52 90-101.67 90s-101.6699-33.87-101.6699-90c0-26.965 10.7116-52.825 29.7789-71.892C134.175 94.2816 160.036 83.57 187 83.57c26.965 0 52.825 10.7116 71.892 29.778 19.066 19.067 29.778 44.927 29.778 71.892z"/>
    <path fill="#E3A781" d="M288.38 185.24c0 56-45.39 89.88-101.38 89.88-55.99 0-101.38-33.88-101.38-89.88 0-26.888 10.6811-52.674 29.694-71.687C134.326 94.5411 160.112 83.86 187 83.86c26.888 0 52.674 10.6811 71.686 29.693 19.013 19.013 29.694 44.799 29.694 71.687z"/>
    <path fill="#E2A782" d="M288.09 185.24c0 55.84-45.26 89.76-101.09 89.76-55.83 0-101.09-33.92-101.09-89.76 0-26.811 10.6506-52.523 29.609-71.481C134.477 94.8005 160.189 84.15 187 84.15c26.811 0 52.523 10.6505 71.481 29.609 18.958 18.958 29.609 44.67 29.609 71.481z"/>
    <path fill="#E2A683" d="M287.81 185.24c0 55.68-45.14 89.6-100.81 89.6s-100.8099-33.92-100.8099-89.6c0-26.736 10.621-52.378 29.5269-71.283C134.622 95.051 160.264 84.43 187 84.43c26.737 0 52.378 10.621 71.284 29.527 18.905 18.905 29.526 44.547 29.526 71.283z"/>
    <path fill="#E2A584" d="M287.52 185.24c0 55.52-45 89.45-100.52 89.45-55.52 0-100.52-33.93-100.52-89.45.5248-26.307 11.3438-51.36 30.134-69.779 18.79-18.4188 44.054-28.7359 70.366-28.7359 26.312 0 51.576 10.3171 70.366 28.7359 18.79 18.419 29.609 43.472 30.134 69.779h.04z"/>
    <path fill="#E1A585" d="M287.23 185.24c0 55.36-44.88 89.31-100.23 89.31s-100.23-34-100.23-89.31c0-26.583 10.5599-52.077 29.357-70.873C134.923 95.5699 160.417 85.01 187 85.01c26.583 0 52.077 10.5599 70.873 29.357 18.797 18.796 29.357 44.29 29.357 70.873z"/>
    <path fill="#E1A486" d="M286.94 185.24c0 55.2-44.74 89.17-99.94 89.17-55.2 0-99.9399-34-99.9399-89.17 0-26.506 10.5293-51.926 29.2719-70.668C135.074 95.8293 160.494 85.3 187 85.3c26.506 0 51.926 10.5293 70.668 29.272 18.743 18.742 29.272 44.162 29.272 70.668z"/>
    <path fill="#E1A387" d="M286.65 185.24c0 55-44.61 89-99.65 89-55.04 0-99.65-34-99.65-89 0-26.429 10.4988-51.775 29.187-70.463C135.225 96.0888 160.571 85.59 187 85.59c26.429 0 51.775 10.4988 70.463 29.187 18.688 18.688 29.187 44.034 29.187 70.463z"/>
    <path fill="#E0A388" d="M286.36 185.24c0 54.88-44.48 88.88-99.36 88.88s-99.36-34-99.36-88.88c0-26.352 10.4683-51.625 29.102-70.258C135.375 96.3483 160.648 85.88 187 85.88c26.352 0 51.625 10.4683 70.258 29.102 18.634 18.633 29.102 43.906 29.102 70.258z"/>
    <path fill="#E0A289" d="M286.07 185.24C286.07 240 241.72 274 187 274c-54.72 0-99.0699-34-99.0699-88.74 0-26.275 10.4377-51.474 29.0169-70.053C135.526 96.6277 160.725 86.19 187 86.19s51.474 10.4377 70.053 29.017c18.579 18.579 29.017 43.778 29.017 70.053v-.02z"/>
    <path fill="#DFA18A" d="M285.78 185.24c0 54.56-44.22 88.6-98.78 88.6s-98.78-34-98.78-88.6c0-26.198 10.4071-51.323 28.932-69.848C135.677 96.8671 160.802 86.46 187 86.46s51.323 10.4071 69.848 28.932c18.525 18.525 28.932 43.65 28.932 69.848z"/>
    <path fill="#DFA08B" d="M285.5 185.24c0 54.4-44.1 88.45-98.5 88.45s-98.5-34.05-98.5-88.45c0-26.124 10.3776-51.178 28.85-69.65 18.472-18.4724 43.526-28.85 69.65-28.85 26.124 0 51.178 10.3776 69.65 28.85 18.472 18.472 28.85 43.526 28.85 69.65z"/>
    <path fill="#DFA08C" d="M285.21 185.24c0 54.24-44 88.31-98.21 88.31-54.21 0-98.21-34.07-98.21-88.31 0-26.047 10.3471-51.027 28.765-69.445C135.973 97.3771 160.953 87.03 187 87.03c26.047 0 51.027 10.3471 69.445 28.765 18.418 18.418 28.765 43.398 28.765 69.445z"/>
    <path fill="#DE9F8D" d="M284.92 185.24c0 54.08-43.84 88.17-97.92 88.17s-97.9199-34.09-97.9199-88.17c0-25.97 10.3165-50.876 28.6799-69.24 18.364-18.3634 43.27-28.68 69.24-28.68 25.97 0 50.876 10.3166 69.24 28.68 18.364 18.364 28.68 43.27 28.68 69.24z"/>
    <path fill="#DE9E8E" d="M284.63 185.24c0 53.92-43.71 88-97.63 88-53.92 0-97.63-34.1-97.63-88 0-25.893 10.286-50.726 28.595-69.035C136.274 97.896 161.107 87.61 187 87.61c25.893 0 50.726 10.286 69.035 28.595 18.309 18.309 28.595 43.142 28.595 69.035z"/>
    <path fill="#DE9E8F" d="M284.34 185.24c0 53.77-43.58 87.88-97.34 87.88-53.76 0-97.34-34.12-97.34-87.88a97.3343 97.3343 0 017.4096-37.25A97.3331 97.3331 0 01149.75 95.3096 97.3343 97.3343 0 01187 87.9a97.3343 97.3343 0 0137.25 7.4096 97.3331 97.3331 0 0131.58 21.1004 97.3256 97.3256 0 0121.1 31.58 97.331 97.331 0 017.41 37.25z"/>
    <path fill="#DD9D90" d="M284.05 185.24c0 53.61-43.45 87.76-97.05 87.76-53.6 0-97-34.13-97-87.74 0-25.739 10.225-50.424 28.425-68.625 18.201-18.2001 42.886-28.425 68.625-28.425 25.739 0 50.424 10.2249 68.625 28.425 18.2 18.201 28.425 42.886 28.425 68.625l-.05-.02z"/>
    <path fill="#DD9C91" d="M283.76 185.24c0 53.45-43.32 87.59-96.76 87.59-53.44 0-96.76-34.14-96.76-87.59 0-25.662 10.194-50.274 28.34-68.42 18.146-18.1457 42.758-28.34 68.42-28.34s50.274 10.1943 68.42 28.34c18.146 18.146 28.34 42.758 28.34 68.42z"/>
    <path fill="#DD9C92" d="M283.48 185.24c0 53.29-43.2 87.45-96.48 87.45s-96.48-34.16-96.48-87.45c0-25.593 10.167-50.139 28.264-68.236 18.097-18.0971 42.643-28.264 68.236-28.264 25.593 0 50.139 10.1669 68.236 28.264 18.097 18.097 28.264 42.643 28.264 68.236h-.04z"/>
    <path fill="#DC9B93" d="M283.19 185.24c0 53.13-43.07 87.31-96.19 87.31s-96.1899-34.18-96.1899-87.31c0-25.511 10.1339-49.977 28.1729-68.017C137.023 99.1843 161.489 89.05 187 89.05c25.511 0 49.978 10.1343 68.017 28.173 18.039 18.04 28.173 42.506 28.173 68.017z"/>
    <path fill="#DC9A94" d="M282.9 185.24c0 53-42.94 87.16-95.9 87.16-52.96 0-95.9-34.19-95.9-87.16 0-25.434 10.104-49.827 28.088-67.812C137.173 99.4437 161.566 89.34 187 89.34c25.434 0 49.827 10.1037 67.812 28.088 17.984 17.985 28.088 42.378 28.088 67.812z"/>
    <path fill="#DB9995" d="M282.61 185.24c0 52.81-42.81 87-95.61 87s-95.61-34.21-95.61-87c0-25.357 10.073-49.676 28.004-67.606C137.324 99.7032 161.643 89.63 187 89.63c25.357 0 49.676 10.0732 67.606 28.004 17.931 17.93 28.004 42.249 28.004 67.606z"/>
    <path fill="#DB9996" d="M282.32 185.24c0 52.65-42.68 86.88-95.32 86.88-52.64 0-95.3199-34.23-95.3199-86.88 0-25.28 10.0429-49.525 27.9189-67.401C137.475 99.9626 161.72 89.92 187 89.92c25.28 0 49.526 10.0426 67.401 27.919 17.876 17.876 27.919 42.121 27.919 67.401z"/>
    <path fill="#DB9897" d="M282 185.24c0 52.49-42.55 86.74-95 86.74s-95-34.25-95-86.74c0-25.204 10.012-49.375 27.834-67.196 17.821-17.822 41.992-27.834 67.196-27.834s49.375 10.012 67.196 27.834c17.822 17.821 27.834 41.992 27.834 67.196H282z"/>
    <path fill="#DA9798" d="M281.74 185.24c0 52.33-42.41 86.59-94.74 86.59s-94.74-34.26-94.74-86.59c0-25.127 9.982-49.224 27.749-66.991C137.776 100.482 161.873 90.5 187 90.5c25.127 0 49.224 9.982 66.991 27.749 17.767 17.767 27.749 41.864 27.749 66.991z"/>
    <path fill="#DA9799" d="M281.45 185.24c0 52.17-42.28 86.45-94.45 86.45s-94.45-34.28-94.45-86.45c0-25.05 9.951-49.073 27.664-66.786S161.95 90.79 187 90.79c25.05 0 49.073 9.951 66.786 27.664s27.664 41.736 27.664 66.786z"/>
    <path fill="#DA969A" d="M281.17 185.24c0 52-42.16 86.31-94.17 86.31-52.01 0-94.1699-34.3-94.1699-86.31 0-24.975 9.9219-48.928 27.5819-66.588C138.072 100.991 162.025 91.07 187 91.07c24.976 0 48.928 9.921 66.588 27.582 17.661 17.66 27.582 41.613 27.582 66.588z"/>
    <path fill="#D9959B" d="M280.88 185.24c0 51.85-42 86.16-93.88 86.16-51.88 0-93.88-34.31-93.88-86.16 0-24.899 9.891-48.777 27.497-66.383C138.223 101.251 162.101 91.36 187 91.36c24.899 0 48.777 9.891 66.383 27.497 17.606 17.606 27.497 41.484 27.497 66.383z"/>
    <path fill="#D9959C" d="M280.59 185.24c0 51.69-41.9 86-93.59 86-51.69 0-93.59-34.33-93.59-86 0-24.822 9.86-48.627 27.412-66.178C138.373 101.51 162.178 91.65 187 91.65c24.822 0 48.627 9.86 66.178 27.412 17.552 17.551 27.412 41.356 27.412 66.178z"/>
    <path fill="#D9949D" d="M280.3 185.24c0 51.53-41.77 85.88-93.3 85.88-51.53 0-93.2999-34.35-93.2999-85.88 0-24.745 9.8299-48.476 27.3269-65.973S162.255 91.94 187 91.94c24.745 0 48.476 9.83 65.973 27.327S280.3 160.495 280.3 185.24z"/>
    <path fill="#D8939E" d="M280 185.24c0 51.37-41.64 85.73-93 85.73s-93-34.36-93-85.73c0-24.665 9.798-48.32 27.239-65.761C138.68 102.038 162.335 92.24 187 92.24s48.32 9.798 65.761 27.239C270.202 136.92 280 160.575 280 185.24z"/>
    <path fill="#D8929F" d="M279.72 185.24c0 51.21-41.51 85.59-92.72 85.59s-92.72-34.38-92.72-85.59c0-24.591 9.769-48.175 27.157-65.563C138.825 102.289 162.409 92.52 187 92.52s48.175 9.769 65.563 27.157c17.388 17.388 27.157 40.972 27.157 65.563z"/>
    <path fill="#D792A0" d="M279.43 185.24c0 51-41.38 85.45-92.43 85.45-51.05 0-92.4299-34.4-92.4299-85.45 0-24.514 9.7379-48.024 27.0719-65.358C138.976 102.548 162.486 92.81 187 92.81c24.514 0 48.024 9.738 65.358 27.072 17.334 17.334 27.072 40.844 27.072 65.358z"/>
    <path fill="#D791A1" d="M279.15 185.24c0 50.9-41.26 85.31-92.15 85.31-50.89 0-92.15-34.41-92.15-85.31 0-24.44 9.709-47.878 26.99-65.16 17.282-17.281 40.72-26.99 65.16-26.99 24.44 0 47.878 9.709 65.16 26.99 17.281 17.282 26.99 40.72 26.99 65.16z"/>
    <path fill="#D790A2" d="M278.86 185.24c0 50.74-41.13 85.16-91.86 85.16S95.14 236 95.14 185.24c0-24.363 9.678-47.728 26.905-64.955C139.272 103.058 162.637 93.38 187 93.38s47.728 9.678 64.955 26.905c17.227 17.227 26.905 40.592 26.905 64.955z"/>
    <path fill="#D690A3" d="M278.57 185.24c0 50.58-41 85-91.57 85-50.57 0-91.5699-34.44-91.5699-85 0-24.286 9.6479-47.577 26.8199-64.75 17.173-17.172 40.464-26.82 64.75-26.82s47.577 9.648 64.75 26.82c17.173 17.173 26.82 40.464 26.82 64.75z"/>
    <path fill="#D68FA4" d="M278.28 185.24c0 50.42-40.87 84.88-91.28 84.88-50.41 0-91.28-34.46-91.28-84.88 0-24.209 9.617-47.426 26.735-64.545C139.574 103.577 162.791 93.96 187 93.96c24.209 0 47.426 9.617 64.545 26.735 17.118 17.119 26.735 40.336 26.735 64.545z"/>
    <path fill="#D68EA5" d="M278 185.24c0 50.26-40.75 84.76-91 84.76s-91-34.47-91-84.73c0-24.135 9.587-47.281 26.653-64.347C139.719 103.857 162.865 94.27 187 94.27c24.135 0 47.281 9.587 64.347 26.653C268.413 137.989 278 161.135 278 185.27v-.03z"/>
    <path fill="#D58DA6" d="M277.7 185.24c0 50.1-40.61 84.59-90.7 84.59s-90.7-34.49-90.7-84.59c0-24.055 9.556-47.125 26.565-64.135 17.01-17.009 40.08-26.565 64.135-26.565 24.055 0 47.125 9.556 64.135 26.565 17.009 17.01 26.565 40.08 26.565 64.135z"/>
    <path fill="#D58DA7" d="M277.41 185.24c0 49.94-40.48 84.45-90.41 84.45s-90.4099-34.51-90.4099-84.45c0-23.978 9.5249-46.974 26.4809-63.93 16.955-16.955 39.951-26.48 63.929-26.48s46.974 9.525 63.93 26.48c16.955 16.956 26.48 39.952 26.48 63.93z"/>
    <path fill="#D58CA8" d="M277.12 185.24c0 49.78-40.35 84.3-90.12 84.3s-90.12-34.52-90.12-84.3c0-23.901 9.495-46.824 26.396-63.724 16.9-16.901 39.823-26.396 63.724-26.396 23.901 0 46.824 9.495 63.724 26.396 16.901 16.9 26.396 39.823 26.396 63.724z"/>
    <path fill="#D48BA9" d="M276.84 185.24c0 49.62-40.22 84.16-89.84 84.16-49.62 0-89.84-34.54-89.84-84.16 0-23.827 9.465-46.678 26.314-63.526C140.322 104.865 163.173 95.4 187 95.4c23.827 0 46.678 9.465 63.526 26.314 16.849 16.848 26.314 39.699 26.314 63.526z"/>
    <path fill="#D48BAA" d="M276.55 185.24c0 49.46-40.09 84-89.55 84-49.46 0-89.5499-34.56-89.5499-84 0-23.75 9.4349-46.528 26.2289-63.321C140.473 105.125 163.25 95.69 187 95.69s46.528 9.435 63.321 26.229c16.794 16.793 26.229 39.571 26.229 63.321z"/>
    <path fill="#D38AAB" d="M276.26 185.24c0 49.3-40 83.88-89.26 83.88-49.26 0-89.26-34.58-89.26-83.88 0-23.673 9.404-46.377 26.144-63.116C140.623 105.384 163.327 95.98 187 95.98c23.673 0 46.377 9.404 63.116 26.144 16.74 16.739 26.144 39.443 26.144 63.116z"/>
    <path fill="#D389AC" d="M276 185.24c0 49.14-39.83 83.73-89 83.73s-89-34.59-89-83.73c.6024-23.196 10.24-45.24 26.86-61.434 16.619-16.193 38.906-25.2553 62.11-25.2553s45.491 9.0623 62.11 25.2553c16.62 16.194 26.258 38.238 26.86 61.434h.06z"/>
    <path fill="#D389AD" d="M275.68 185.24c0 49-39.7 83.59-88.68 83.59-48.98 0-88.6799-34.61-88.6799-83.59 0-23.519 9.3429-46.076 25.9739-62.706C140.925 105.903 163.481 96.56 187 96.56c23.519 0 46.076 9.343 62.706 25.974 16.631 16.63 25.974 39.187 25.974 62.706z"/>
    <path fill="#D288AE" d="M275.39 185.24c0 48.82-39.57 83.45-88.39 83.45s-88.39-34.63-88.39-83.45a88.3864 88.3864 0 0125.889-62.501 88.3905 88.3905 0 0128.676-19.161 88.3902 88.3902 0 0196.326 19.161 88.3864 88.3864 0 0125.889 62.501z"/>
    <path fill="#D287AF" d="M275.1 185.24c0 48.66-39.44 83.3-88.1 83.3s-88.1-34.64-88.1-83.3c0-23.366 9.282-45.774 25.804-62.296S163.634 97.14 187 97.14s45.774 9.282 62.296 25.804 25.804 38.93 25.804 62.296z"/>
    <path fill="#D286B0" d="M274.82 185.24c0 48.5-39.32 83.16-87.82 83.16-48.5 0-87.8199-34.66-87.8199-83.16 0-23.291 9.2519-45.629 25.7219-62.098C141.371 106.672 163.709 97.42 187 97.42c23.291 0 45.629 9.252 62.098 25.722 16.47 16.469 25.722 38.807 25.722 62.098z"/>
    <path fill="#D186B1" d="M274.53 185.24c0 48.34-39.19 83-87.53 83s-87.53-34.68-87.53-83c0-23.214 9.222-45.478 25.637-61.893S163.786 97.71 187 97.71s45.478 9.222 61.893 25.637 25.637 38.679 25.637 61.893z"/>
    <path fill="#D185B2" d="M274.24 185.24c0 48.19-39.06 82.87-87.24 82.87-48.18 0-87.24-34.68-87.24-82.87 0-23.137 9.191-45.327 25.552-61.688C141.673 107.191 163.863 98 187 98s45.327 9.191 61.688 25.552c16.361 16.361 25.552 38.551 25.552 61.688z"/>
    <path fill="#D184B3" d="M274 185.24c0 48.03-39 82.76-87 82.76s-86.95-34.7-86.95-82.73c.765-22.55 10.261-43.921 26.483-59.603 16.223-15.682 37.904-24.448 60.467-24.448 22.563 0 44.244 8.766 60.467 24.448 16.222 15.682 25.718 37.053 26.483 59.603l.05-.03z"/>
    <path fill="#D084B4" d="M273.66 185.24c0 47.87-38.8 82.59-86.66 82.59s-86.66-34.72-86.66-82.59c0-22.984 9.13-45.026 25.382-61.278C141.974 107.71 164.016 98.58 187 98.58s45.026 9.13 61.278 25.382c16.252 16.252 25.382 38.294 25.382 61.278z"/>
    <path fill="#D083B5" d="M273.37 185.24c0 47.71-38.67 82.45-86.37 82.45s-86.37-34.69-86.37-82.45c0-22.907 9.1-44.875 25.297-61.073C142.125 107.97 164.093 98.87 187 98.87c22.907 0 44.875 9.1 61.073 25.297 16.197 16.198 25.297 38.166 25.297 61.073z"/>
    <path fill="#CF82B6" d="M273.08 185.24c0 47.55-38.54 82.3-86.08 82.3s-86.08-34.75-86.08-82.3c0-22.83 9.069-44.725 25.212-60.868S164.17 99.16 187 99.16c22.83 0 44.725 9.069 60.868 25.212s25.212 38.038 25.212 60.868z"/>
    <path fill="#CF82B7" d="M272.79 185.24c0 47.39-38.41 82.16-85.79 82.16-47.38 0-85.79-34.77-85.79-82.16 0-22.753 9.039-44.574 25.127-60.663C142.426 108.489 164.247 99.45 187 99.45s44.574 9.039 60.663 25.127c16.089 16.089 25.127 37.91 25.127 60.663z"/>
    <path fill="#CF81B8" d="M272.51 185.24c0 47.23-38.29 82-85.51 82-47.22 0-85.51-34.79-85.51-82 .343-22.45 9.502-43.863 25.499-59.618 15.997-15.754 37.549-24.584 60.001-24.584 22.452 0 44.004 8.83 60.001 24.584 15.997 15.755 25.156 37.168 25.499 59.618h.02z"/>
    <path fill="#CE80B9" d="M272.22 185.24c0 47.07-38.16 81.87-85.22 81.87s-85.22-34.8-85.22-81.87c0-22.602 8.979-44.278 24.96-60.26 15.982-15.981 37.658-24.96 60.26-24.96 22.602 0 44.278 8.979 60.26 24.96 15.982 15.982 24.96 37.658 24.96 60.26z"/>
    <path fill="#CE7FBA" d="M271.93 185.24c0 46.91-38 81.73-84.93 81.73-46.93 0-84.93-34.82-84.93-81.73 0-22.525 8.948-44.127 24.875-60.055 15.928-15.927 37.53-24.875 60.055-24.875s44.127 8.948 60.055 24.875c15.927 15.928 24.875 37.53 24.875 60.055z"/>
    <path fill="#CE7FBB" d="M271.64 185.24c0 46.75-37.89 81.59-84.64 81.59s-84.64-34.83-84.64-81.59c0-11.115 2.189-22.121 6.443-32.39a84.6462 84.6462 0 0118.347-27.46 84.6462 84.6462 0 0127.46-18.347A84.6306 84.6306 0 01187 100.6c11.115 0 22.121 2.189 32.39 6.443a84.6462 84.6462 0 0127.46 18.347 84.6462 84.6462 0 0118.347 27.46 84.6306 84.6306 0 016.443 32.39z"/>
    <path fill="#CD7EBC" d="M271.35 185.24c0 46.59-37.76 81.44-84.35 81.44-46.59 0-84.35-34.85-84.35-81.44 0-22.371 8.887-43.826 24.706-59.644 15.818-15.819 37.273-24.706 59.644-24.706 22.371 0 43.826 8.887 59.644 24.706 15.819 15.818 24.706 37.273 24.706 59.644z"/>
    <path fill="#CD7DBD" d="M271.06 185.24c0 46.43-37.63 81.3-84.06 81.3s-84.06-34.87-84.06-81.3c0-22.294 8.856-43.675 24.621-59.439 15.764-15.765 37.145-24.621 59.439-24.621 22.294 0 43.675 8.856 59.439 24.621 15.765 15.764 24.621 37.145 24.621 59.439z"/>
    <path fill="#CD7DBE" d="M270.77 185.24c0 46.27-37.5 81.16-83.77 81.16-46.27 0-83.77-34.89-83.77-81.16 0-22.217 8.826-43.524 24.536-59.234S164.783 101.47 187 101.47s43.524 8.826 59.234 24.536 24.536 37.017 24.536 59.234z"/>
    <path fill="#CC7CBF" d="M270.49 185.24c0 46.11-37.38 81-83.49 81-46.11 0-83.49-34.9-83.49-81 0-22.146 8.797-43.384 24.457-59.043 15.659-15.66 36.897-24.457 59.043-24.457s43.384 8.797 59.043 24.457c15.66 15.659 24.457 36.897 24.457 59.043h-.02z"/>
    <path fill="#CC7BC0" d="M270.2 185.24c0 45.95-37.25 80.87-83.2 80.87s-83.2-34.92-83.2-80.87c0-22.066 8.766-43.228 24.369-58.831 15.603-15.603 36.765-24.369 58.831-24.369 22.066 0 43.228 8.766 58.831 24.369 15.603 15.603 24.369 36.765 24.369 58.831z"/>
    <path fill="#CB7BC1" d="M269.91 185.24C269.91 231 232.79 266 187 266s-82.91-35-82.91-80.76c0-21.989 8.735-43.078 24.284-58.626 15.549-15.549 36.637-24.284 58.626-24.284 21.989 0 43.078 8.735 58.626 24.284 15.549 15.548 24.284 36.637 24.284 58.626z"/>
    <path fill="#CB7AC2" d="M269.62 185.24c0 45.63-37 80.59-82.62 80.59-45.62 0-82.62-35-82.62-80.59 0-21.912 8.705-42.927 24.199-58.421 15.494-15.494 36.509-24.199 58.421-24.199s42.927 8.705 58.421 24.199c15.494 15.494 24.199 36.509 24.199 58.421z"/>
    <path fill="#CB79C3" d="M269.33 185.24c0 45.48-36.86 80.44-82.33 80.44s-82.33-35-82.33-80.44c0-10.812 2.13-21.518 6.267-31.506a82.3371 82.3371 0 0117.847-26.71 82.3212 82.3212 0 0126.71-17.847A82.3334 82.3334 0 01187 102.91c10.812 0 21.518 2.13 31.506 6.267a82.3212 82.3212 0 0126.71 17.847 82.3212 82.3212 0 0117.847 26.71 82.3147 82.3147 0 016.267 31.506z"/>
    <path fill="#CA78C4" d="M269 185.24c0 45.32-36.73 80.3-82 80.3s-82-35-82-80.3c0-21.758 8.643-42.626 24.029-58.011 15.385-15.386 36.253-24.029 58.011-24.029 21.758 0 42.626 8.643 58.011 24.029 15.386 15.385 24.029 36.253 24.029 58.011H269z"/>
    <path fill="#CA78C5" d="M268.75 185.24c0 45.16-36.6 80.16-81.75 80.16s-81.75-35-81.75-80.16c0-21.681 8.613-42.475 23.944-57.806 15.331-15.331 36.125-23.944 57.806-23.944 21.681 0 42.475 8.613 57.806 23.944 15.331 15.331 23.944 36.125 23.944 57.806z"/>
    <path fill="#CA77C6" d="M268.47 185.24c0 45-36.48 80-81.47 80s-81.47-35-81.47-80c0-21.607 8.583-42.329 23.862-57.608 15.279-15.279 36.001-23.862 57.608-23.862s42.329 8.583 57.608 23.862c15.279 15.279 23.862 36.001 23.862 57.608z"/>
    <path fill="#C976C7" d="M268.18 185.24c0 44.84-36.35 79.87-81.18 79.87-44.83 0-81.18-35-81.18-79.87 0-21.53 8.553-42.179 23.777-57.403C144.821 112.613 165.47 104.06 187 104.06s42.179 8.553 57.403 23.777c15.224 15.224 23.777 35.873 23.777 57.403z"/>
    <path fill="#C976C8" d="M267.89 185.24c0 44.68-36.22 79.73-80.89 79.73s-80.89-35.05-80.89-79.73c0-21.453 8.522-42.028 23.692-57.198 15.17-15.17 35.745-23.692 57.198-23.692 21.453 0 42.028 8.522 57.198 23.692 15.17 15.17 23.692 35.745 23.692 57.198z"/>
    <path fill="#C975C9" d="M267.6 185.24c0 44.52-36.09 79.58-80.6 79.58-44.51 0-80.6-35.06-80.6-79.58 0-21.376 8.492-41.877 23.607-56.993 15.116-15.115 35.617-23.607 56.993-23.607 21.376 0 41.877 8.492 56.993 23.607 15.115 15.116 23.607 35.617 23.607 56.993z"/>
    <path fill="#C874CA" d="M267.31 185.24c0 44.36-36 79.44-80.31 79.44s-80.31-35.08-80.31-79.44c0-21.3 8.461-41.727 23.522-56.788 15.061-15.061 35.489-23.522 56.788-23.522 21.3 0 41.727 8.461 56.788 23.522 15.061 15.061 23.522 35.488 23.522 56.788z"/>
    <path fill="#C874CB" d="M267 185.24c0 44.2-35.83 79.3-80 79.3s-80-35.1-80-79.3c0-21.217 8.429-41.566 23.431-56.569 15.003-15.002 35.352-23.431 56.569-23.431 21.217 0 41.566 8.429 56.569 23.431C258.571 143.674 267 164.023 267 185.24z"/>
    <path fill="#C773CC" d="M266.73 185.24c0 44-35.69 79.16-79.73 79.16-44.04 0-79.73-35.12-79.73-79.16 0-21.146 8.4-41.425 23.352-56.378C145.575 113.91 165.854 105.51 187 105.51s41.425 8.4 56.378 23.352c14.952 14.953 23.352 35.232 23.352 56.378z"/>
    <path fill="#C772CD" d="M266.44 185.24c0 15.712-4.659 31.071-13.388 44.134a79.4424 79.4424 0 01-35.652 29.259 79.4369 79.4369 0 01-45.898 4.521 79.4465 79.4465 0 01-40.674-21.741 79.4387 79.4387 0 01-21.741-40.675 79.4282 79.4282 0 014.52-45.898 79.4424 79.4424 0 0129.259-35.652A79.4355 79.4355 0 01187 105.8a79.0652 79.0652 0 0130.458 5.947 79.0786 79.0786 0 0125.824 17.211 79.089 79.089 0 0117.211 25.824 79.0652 79.0652 0 015.947 30.458z"/>
    <path fill="#C771CE" d="M266.16 185.24a79.1602 79.1602 0 01-13.336 43.982 79.1566 79.1566 0 01-35.524 29.159 79.1607 79.1607 0 01-45.737 4.509 79.1626 79.1626 0 01-40.534-21.662 79.1538 79.1538 0 01-21.667-40.531 79.1629 79.1629 0 014.503-45.738 79.1547 79.1547 0 0129.155-35.527A79.1572 79.1572 0 01187 106.09a78.9062 78.9062 0 0130.33 5.958 78.9015 78.9015 0 0125.715 17.15 78.9096 78.9096 0 0123.115 56.042z"/>
    <path fill="#C671CF" d="M265.87 185.24a78.8748 78.8748 0 01-13.287 43.821 78.8676 78.8676 0 01-35.394 29.052 78.863 78.863 0 01-45.57 4.493 78.8717 78.8717 0 01-61.973-61.966 78.871 78.871 0 014.487-45.57 78.8657 78.8657 0 0129.048-35.397A78.8718 78.8718 0 01187 106.38a78.7565 78.7565 0 0130.199 5.97 78.7642 78.7642 0 0125.602 17.092 78.7536 78.7536 0 0117.095 25.6 78.7517 78.7517 0 015.974 30.198z"/>
    <path fill="#C670D0" d="M187 263.82c43.399 0 78.58-35.181 78.58-78.58s-35.181-78.58-78.58-78.58c-43.398 0-78.58 35.181-78.58 78.58s35.182 78.58 78.58 78.58z"/>
    <path fill="#562E6D" d="M281.48 113.66l-4.23-1.75-14.08-5.84-1.77-.74-4.4-1.83a5.6408 5.6408 0 00-4.29 0 5.6394 5.6394 0 00-3-3l-7-2.93-20-8.33a5.7894 5.7894 0 00-4.31 0 5.6596 5.6596 0 00-3-3l-8.67-3.6h-.05l-17.32-7.2a5.8523 5.8523 0 00-1.53-.4 5.652 5.652 0 00-1.3 0 5.775 5.775 0 00-1.52.4l-17.33 7.2h-.05l-36 15-18.8 7.8-1.77.74-14.07 5.84-4.23 1.76A5.6795 5.6795 0 0089 118.9v79.84c-.0012.479.0593.956.18 1.42a5.6789 5.6789 0 003.31 3.81l.64.26-.63.27a5.6436 5.6436 0 00-2.5455 2.083A5.6465 5.6465 0 0089 209.73v32.77a5.6465 5.6465 0 00.9545 3.147A5.6436 5.6436 0 0092.5 247.73l4.27 1.77 10 4.14h29.56l-34.17-14.19-1.78-.74v-25.19l1.73-.72 8-3.33a5.6212 5.6212 0 001.838-1.228 5.616 5.616 0 001.222-1.842c.293-.682.443-1.417.44-2.16a5.6818 5.6818 0 00-.957-3.15 5.6778 5.6778 0 00-2.543-2.09l-9.75-4v-72.32l1.72-.71L187 86.7l18.64 7.75 1.73.72v2.31a5.4674 5.4674 0 00.44 2.17 5.6702 5.6702 0 003.067 3.06c1.388.573 2.946.573 4.333 0l5.19-2.15 19.69 8.18 1.71.71v2.32c-.001.745.145 1.482.43 2.17.285.688.702 1.313 1.229 1.84.527.526 1.152.944 1.841 1.228.688.284 1.426.43 2.171.429.745-.002 1.482-.15 2.169-.437l5.16-2.15 17.1 7.15 1.72.71v116l-1.78.74-14.06 5.84-17.44-7.24v-19.66a5.5378 5.5378 0 00-.44-2.17 5.637 5.637 0 00-1.225-1.845 5.6418 5.6418 0 00-4.015-1.658 5.639 5.639 0 00-2.17.443l-26 10.8a5.6695 5.6695 0 00-3.49 5.24v24.44h11.34V233l14.66-6.11v14.94c.001 1.121.334 2.217.957 3.15.623.932 1.508 1.66 2.543 2.09l15.83 6.57 7.27 3a5.6558 5.6558 0 004.35 0l1.41-.58 1.68-.7 4.18-1.74 10-4.14 4.27-1.77a5.6502 5.6502 0 002.546-2.083c.623-.931.955-2.026.954-3.147V118.9a5.6793 5.6793 0 00-.961-3.152 5.6815 5.6815 0 00-2.549-2.088zM112.62 256.08l.54-1.5-2.22.8 1.68.7z"/>
    <path fill="#C670D0" d="M279.31 118.9L187 157.23 94.6901 118.9 187 80.57l26 10.82-70.27 29.18 7.34 3.05 70.28-29.18 27.08 11.24-70.28 29.19 7.35 3 70.28-29.19 24.53 10.22z"/>
    <path fill="#FDDA39" d="M213 97.49l-62.93 26.13-7.34-3.05L213 91.39v6.1zm34.47 14.29l-62.93 26.14-7.35-3 70.28-29.19v6.05z"/>
    <path fill="#A75CBC" d="M164.72 227.82v11l-70-29.08 13.24-5.49 56.76 23.57z"/>
    <path fill="#FDDA39" d="M116.6 162.38v11l70.4 29.23v51h-65.48l-22.0599-9.16-4.77-2v-32.72l7.3999 3.07 62.63 26v-11l-51.56-21.4-5.23-2.17-13.2399-5.49V118.9l7.3899 3.07L187 157.23v34.39l-.69-.29-.24-.1-2.83-1.17-.73-.3-4.09-1.7-.75-.31-.27-.11-1.27-.53-7.76-3.23-2.71-1.13-10.66-4.42-2.07-.87-1.45-.6-2.51-1-9.63-4-2.48-1-2.86-1.25-4.19-1.74h-.1l-3.18-1.32-3.53-1.49-3.12-1.3-3.28-1.38z"/>
    <path fill="#7A4683" d="M129.83 167.88l-13.23 5.49v-11l13.23 5.51z"/>
    <path fill="#A75CBC" d="M187 191.62v11l-70.4-29.23 13.23-5.49L187 191.62z"/>
    <path fill="#FFF073" d="M271.92 122L187 157.23v96.41h21.68v-24.45l26-10.8 5.23-2.17 17.88-7.43v42.64l16.74-7 4.77-2V118.9l-7.38 3.1zm-63.24 71.6v-10.86c1-.4 1.94-.81 2.94-1.21l2.81-1.18 12.41-5.15 3.2-1.33 4.83-2 9.62-4 4.56-1.89 1.52-.63 7.23-3v10.85l-49.12 20.4z"/>
    <path fill="#7A4683" d="M257.8 162.35v10.86l-13.31-5.33 13.31-5.53z"/>
    <path fill="#A75CBC" d="M257.8 173.21l-49.12 20.4v-10.86l35.81-14.87 13.31 5.33zm0 35.59v42.63l-23.11-9.6V218.4l23.11-9.6z"/>
    <path fill="#562E6D" d="M371 287.3l-7.3-10.48a27.1278 27.1278 0 007.3-18.95c0-17.3-12.79-29.38-31.11-29.38h-23.14a8.4262 8.4262 0 00-5 1.62 8.4262 8.4262 0 00-5-1.62h-39.83a8.4939 8.4939 0 00-3.299.665 8.4907 8.4907 0 00-2.781 1.895 8.4688 8.4688 0 00-2.775-1.896 8.4372 8.4372 0 00-3.295-.664h-9.34a8.5108 8.5108 0 00-4.21 1.111 8.5137 8.5137 0 00-3.11 3.049l-12.78 21.51-12.78-21.51a8.51 8.51 0 00-3.104-3.048 8.5075 8.5075 0 00-4.206-1.112h-9.81a8.4934 8.4934 0 00-6.47 3 8.464 8.464 0 00-2.904-2.214 8.476 8.476 0 00-3.566-.786h-9.34c-1.475 0-2.924.383-4.206 1.112a8.51 8.51 0 00-3.104 3.048l-12.78 21.51-12.78-21.51a8.51 8.51 0 00-3.104-3.048 8.5075 8.5075 0 00-4.206-1.112h-9.81c-2.12-.002-4.165.79-5.73 2.22a8.441 8.441 0 00-5.72-2.22h-15a8.5169 8.5169 0 00-3.2559.644 8.513 8.513 0 00-2.7609 1.842A8.4998 8.4998 0 0088.2 236.99v31.63c0 2.4-.78 2.4-2.09 2.4-1.31 0-1.85 0-1.85-2.4V237a8.5016 8.5016 0 00-2.4931-6.014 8.5146 8.5146 0 00-2.761-1.842 8.5165 8.5165 0 00-3.2559-.644h-15a8.4909 8.4909 0 00-7.35 4.24 42.5984 42.5984 0 00-20.58-4.95c-17.76 0-30.17 10.63-30.17 25.85 0 7.08 2.43 12.12 6.06 15.81-.11.16-.21.32-.31.49l-7 11.77a8.5088 8.5088 0 00-1.011 6.066 8.511 8.511 0 003.341 5.164A45.3819 45.3819 0 0031 301.37c12.74 0 22.32-5.08 26.94-13.63 5.75 8.62 15.62 13.63 28.22 13.63 11.89 0 21.35-4.39 27.27-12l-.07 2.62a8.5173 8.5173 0 002.424 6.144 8.5241 8.5241 0 002.784 1.897c1.045.44 2.168.668 3.302.669h14.63a8.508 8.508 0 004.748-1.449 8.5087 8.5087 0 003.132-3.851c1.183.591 2.488.899 3.81.9h9.11a8.5938 8.5938 0 004-1 8.5108 8.5108 0 003.127 3.921 8.5111 8.5111 0 004.793 1.479h14.68a8.5248 8.5248 0 005.1-1.7 8.5523 8.5523 0 005.1 1.71h14.68c1.69 0 3.342-.504 4.745-1.448a8.49 8.49 0 003.125-3.852c1.187.591 2.494.899 3.82.9h9.1a8.5697 8.5697 0 004-1 8.5108 8.5108 0 003.127 3.921 8.5111 8.5111 0 004.793 1.479h14.68a8.503 8.503 0 005.37-1.92 8.4342 8.4342 0 005.37 1.92h40a8.4898 8.4898 0 004.9-1.57 8.4635 8.4635 0 004.9 1.57h14.68c1.612.001 3.19-.457 4.552-1.319a8.5014 8.5014 0 003.138-3.551l.6.94a8.5127 8.5127 0 003.083 2.881 8.5125 8.5125 0 004.087 1.049H364a8.5078 8.5078 0 004.42-1.219 8.504 8.504 0 003.144-3.338 8.5008 8.5008 0 00.952-4.486A8.4962 8.4962 0 00371 287.34v-.04zm-236.54-28.72a8.417 8.417 0 00-3.36 1.73l.23-9.43 4.43 7.47c-.439.043-.873.12-1.3.23zm36.71-.4l-.63-.14 3.82-6.43.21 8.32a8.6085 8.6085 0 00-3.4-1.75zm35.57.4a8.285 8.285 0 00-3.36 1.73l.22-9.43 4.44 7.47c-.439.042-.873.119-1.3.23zm36.7-.4l-.63-.14 3.82-6.43.22 8.32a8.6481 8.6481 0 00-3.41-1.75zm32 6.8v-1.43c.225.252.465.489.72.71-.256.234-.5.481-.73.74l.01-.02zm49.83 7.21v-.78l.39.39c-.143.119-.277.25-.4.39h.01z"/>
    <path fill="#FFFB66" d="M8.74 281.81l7-11.77c5.18 4 9.5 5.81 16.25 5.81 3.61 0 5.57-1.41 5.57-3.85 0-2.82-2-3.92-9.81-6.2-11.93-3.53-16.56-8.08-16.56-16.4 0-10.52 8.55-17.34 21.66-17.34a33.7674 33.7674 0 0120 6l-6.28 11.22a26.1276 26.1276 0 00-14-4.47c-4.08 0-6.2 1.1-6.2 3.37 0 2.12 1.5 3.07 9.58 5.5 11.61 3.45 16.56 8.55 16.56 16.95 0 11.38-7.85 18-21.5 18a37.0046 37.0046 0 01-22.27-6.82zm52.03-18.6v-30.45h15v31.63c0 5.1 2.59 10.91 10.36 10.91s10.6-5.81 10.6-10.91v-31.63h15v30.45c0 16.8-10.21 25.43-25.59 25.43-15.14 0-25.37-8.64-25.37-25.43zm108.46 24.73l-.16-25.75-11.77 21.35h-9.11l-11.61-21-.08 25.35h-14.67l1.33-55.18H133l20.09 33.83 20.09-33.83h9.34l1.41 55.18-14.7.05zm72.27 0l-.15-25.75-11.78 21.35h-9.1l-11.62-21-.07 25.35H194.1l1.33-55.18h9.81l20.09 33.83 20.1-33.83h9.34l1.41 55.18-14.68.05zM307 275v12.95h-40v-55.19h39.87v13h-25v7.85h22v12.79h-22v8.6H307zm30.86-1.19h-6.43v14.13h-14.68v-55.18h23.15c14.21 0 22.61 9 22.61 20.88.063 3.559-.885 7.063-2.733 10.106a18.8366 18.8366 0 01-7.707 7.084L364 287.94h-17.11l-9.03-14.13zm-6.43-12.48h7.3c5.41 0 8.79-3.45 8.79-7.85 0-4.63-3.22-8.24-9-8.24h-7.06l-.03 16.09z"/>
    <path fill="url(#paint0_linear)" d="M364 287.93h-17.12l-9-14.12h-6.43v14.12h-14.7v-19.2c7.72 1.19 14.86 2.46 21.36 3.83 6.87 1.44 13 3 18.37 4.61l7.52 10.76z"/>
    <path fill="url(#paint1_linear)" d="M52.46 270.67c0 11.38-7.85 18-21.5 18a36.9208 36.9208 0 01-22.22-6.83l1.26-2.09a144.2907 144.2907 0 0115.2-4.7 26.235 26.235 0 006.8.79c3.5 0 5.46-1.32 5.57-3.62 4.65-1 9.62-1.85 14.88-2.71 0 .38.01.77.01 1.16z"/>
    <path fill="url(#paint2_linear)" d="M111.7 262.9v.32c0 16.79-10.19 25.42-25.58 25.42-13.57 0-23.18-6.93-25-20.47 4.74-.67 9.66-1.32 14.77-1.92.59 4.55 3.42 9.05 10.25 9.05 7.85 0 10.6-5.81 10.6-10.91v-.28c4.85-.45 9.86-.84 14.96-1.21z"/>
    <path fill="url(#paint3_linear)" d="M183.91 287.93h-14.68l-.16-25.74-11.77 21.35h-9.1l-11.62-21-.08 25.35h-14.68l.63-25.73c4.61-.27 9.32-.51 14.08-.74 4.333-.2 8.727-.367 13.18-.5l3.35 5.63 3.46-5.83c4.13-.12 8.32-.21 12.53-.28 4.667-.073 9.383-.113 14.15-.12l.71 27.61z"/>
    <path fill="url(#paint4_linear)" d="M256.18 287.93H241.5l-.16-25.74-11.77 21.35h-9.1l-11.62-21-.07 25.35H194.1l.67-27.55c4.753 0 9.46.06 14.12.18 4.39.07 8.74.19 13 .31l3.4 5.72 3.25-5.48c4.32.14 8.57.33 12.77.53 4.8.24 9.517.51 14.15.81l.72 25.52z"/>
    <path fill="url(#paint5_linear)" d="M307 275v12.94h-40v-24.7c11.59.89 22.57 1.95 32.8 3.19h-18V275H307z"/>
    <defs>
        <linearGradient id="paint0_linear" x1="340.38" x2="340.38" y1="287.93" y2="268.73" gradientUnits="userSpaceOnUse">
            <stop stop-color="#FD9F3B"/>
            <stop offset=".28" stop-color="#FEC34C"/>
            <stop offset=".57" stop-color="#FEE25A"/>
            <stop offset=".82" stop-color="#FFF463"/>
            <stop offset="1" stop-color="#FFFB66"/>
        </linearGradient>
        <linearGradient id="paint1_linear" x1="1696.33" x2="1696.33" y1="5917.46" y2="5550.76" gradientUnits="userSpaceOnUse">
            <stop stop-color="#FD9F3B"/>
            <stop offset=".28" stop-color="#FEC34C"/>
            <stop offset=".57" stop-color="#FEE25A"/>
            <stop offset=".82" stop-color="#FFF463"/>
            <stop offset="1" stop-color="#FFFB66"/>
        </linearGradient>
        <linearGradient id="paint2_linear" x1="4835.87" x2="4835.87" y1="7846.94" y2="7184.39" gradientUnits="userSpaceOnUse">
            <stop stop-color="#FD9F3B"/>
            <stop offset=".28" stop-color="#FEC34C"/>
            <stop offset=".57" stop-color="#FEE25A"/>
            <stop offset=".82" stop-color="#FFF463"/>
            <stop offset="1" stop-color="#FFFB66"/>
        </linearGradient>
        <linearGradient id="paint3_linear" x1="10110.2" x2="10110.2" y1="8375.72" y2="7614.52" gradientUnits="userSpaceOnUse">
            <stop stop-color="#FD9F3B"/>
            <stop offset=".28" stop-color="#FEC34C"/>
            <stop offset=".57" stop-color="#FEE25A"/>
            <stop offset=".82" stop-color="#FFF463"/>
            <stop offset="1" stop-color="#FFFB66"/>
        </linearGradient>
        <linearGradient id="paint4_linear" x1="14667.4" x2="14667.4" y1="8369.87" y2="7609.76" gradientUnits="userSpaceOnUse">
            <stop stop-color="#FD9F3B"/>
            <stop offset=".28" stop-color="#FEC34C"/>
            <stop offset=".57" stop-color="#FEE25A"/>
            <stop offset=".82" stop-color="#FFF463"/>
            <stop offset="1" stop-color="#FFFB66"/>
        </linearGradient>
        <linearGradient id="paint5_linear" x1="12064.2" x2="12064.2" y1="7523.31" y2="6913.47" gradientUnits="userSpaceOnUse">
            <stop stop-color="#FD9F3B"/>
            <stop offset=".28" stop-color="#FEC34C"/>
            <stop offset=".57" stop-color="#FEE25A"/>
            <stop offset=".82" stop-color="#FFF463"/>
            <stop offset="1" stop-color="#FFFB66"/>
        </linearGradient>
    </defs>
</svg>
