<svg xmlns="http://www.w3.org/2000/svg" fill="none" viewBox="0 0 368 301">
    <path fill="#99E1F7" d="M367.91 177.58h-23l17.65-17.65-12.5-12.5-30.15 30.15h-13l15.27-15.27-12.5-12.5-27.77 27.77h-13.98l54.48-51-74.59 2.42 9.86-9.86H297V101.5h-21.6l9.22-9.22h42.64V74.6h-25l16.26-16.26-8.95-9-16.26 16.26v-25h-17.68v42.64l-9.22 9.22V71h-17.68v39.27l-9.86 9.86 2.46-74.59-51 54.48V86l27.77-27.73-12.5-12.5L190.33 61V48l30.15-30.15L208 5.35 190.33 23V0h-12.66v23L160 5.35l-12.5 12.5L177.67 48v13L162.4 45.77l-12.5 12.5L177.67 86v14l-51-54.48 2.46 74.59-9.86-9.86V71h-17.68v21.59l-9.22-9.22V40.69H74.69v25l-16.26-16.3-9 9L65.74 74.6h-25v17.68h42.68l9.22 9.22H71v17.68h39.28l9.86 9.86-74.59-2.46 54.48 51h-13.9l-27.77-27.77-12.5 12.5 15.27 15.27h-13l-30.19-30.15-12.5 12.5 17.65 17.65h-23v12.66h23L5.44 207.89l12.5 12.5 30.15-30.15h13l-15.23 15.27L58.36 218l27.77-27.77h13.94l-54.48 51 74.59-2.46-9.86 9.86H71v9.87c2.91.52 5.82 1.21 8.68 2l3.44 1c9.44-1.57 19.39-2.52 28.67 0 2.595.738 5.092 1.782 7.44 3.11v-7l9.86-9.86-.53 16.15c3.43-.6 6.88-1 10.28-1.34 8.74-.81 17.46-1.74 26.24-1.64a52.3491 52.3491 0 0123.68-3.92 48.2042 48.2042 0 0121.45-2.53c4.511-1.5 9.248-2.203 14-2.08 1.566.05 3.128.183 4.68.4a50.0639 50.0639 0 0110.11-2.56l-.08-2.5 2.25 2.25a41.4625 41.4625 0 0129.29 7.81c1.26.37 2.51.79 3.74 1.24 3.914-.591 7.872-.846 11.83-.76a39.3519 39.3519 0 018.1-2c1-.13 1.92-.21 2.88-.27v-7.36h-39.33l-9.86-9.86 74.59 2.46-54.48-51h13.94L309.64 218l12.5-12.5-15.27-15.27h13l30.15 30.15 12.5-12.5-17.65-17.65h23l.04-12.65z"/>
    <path fill="#6596D1" d="M30.49 204.53l10.75 10.74 25.92-25.92h11.21l-13.13 13.13L76 213.23l23.87-23.88h12L65 233.2l64.12-2.11-8.47 8.47H86.89v15.2h18.57l-5.2 5.2c3.904.026 7.79.533 11.57 1.51 3.224.926 6.301 2.303 9.14 4.09 2.42-.66 4.9-1.19 7.38-1.64v-16.67l8.48-8.47-.8 24.05c.95-.11 1.9-.2 2.85-.29 8.74-.81 17.46-1.74 26.24-1.64a52.0216 52.0216 0 0112.1-3.4l1.34-1.44v1.25c3.381-.44 6.797-.55 10.2-.33l.68-.23v-.69l.49.52a48.6436 48.6436 0 0114.46-2.41c1.944-.025 3.888.068 5.82.28 4.511-1.5 9.248-2.204 14-2.08 1.566.05 3.128.183 4.68.4.9-.33 1.81-.63 2.72-.91l-.43-13.08 8.48 8.47v2.88a42.5456 42.5456 0 0126.08 4.63h15.38v-15.2h-33.78l-8.47-8.47L303 233.2l-46.84-43.85h12L292 213.23l10.75-10.75-13.13-13.13h11.21l25.92 25.92 10.75-10.74-15.17-15.18h19.77v-10.88h-19.76l15.17-15.17-10.75-10.75-25.92 25.92h-11.21l13.13-13.13L292 154.59l-23.87 23.88h-12L303 134.62l-64.12 2.12 8.47-8.48h33.77v-15.2h-18.58l7.93-7.92h36.66v-15.2h-21.46l14-14-7.7-7.69-14 14V60.79h-15.2v36.65l-7.92 7.93V86.8h-15.2v33.77l-8.48 8.43 2.12-64.12-43.85 46.84v-12l23.88-23.87-10.75-10.75-13.13 13.13V67.07l25.92-25.92-10.75-10.75-15.17 15.17V25.8h-10.88v19.77L163.39 30.4l-10.75 10.75 25.92 25.92v11.21l-13.13-13.13-10.75 10.75 23.88 23.87v12l-43.85-46.84 2.12 64.07-8.48-8.47V86.8h-15.2v18.57l-7.92-7.93V60.79H90v21.45l-14-14L68.35 76l14 14H60.87v15.2h36.66l7.93 7.92H86.89v15.2h33.77l8.47 8.48L65 134.62l46.84 43.85h-12L76 154.59l-10.76 10.75 13.13 13.13H67.16l-25.92-25.92-10.75 10.75 15.17 15.17H25.89v10.88h19.77l-15.17 15.18z"/>
    <path fill="#5273BA" d="M266 293.27c2.1-1.49 4.13-2.91 6.28-4.17l-6-.8c.022 1.661-.071 3.322-.28 4.97z"/>
    <path fill="#1C2175" d="M226.96 220.19h-19.9v19.9h19.9v-19.9z"/>
    <path fill="#5273BA" d="M193.93 255.58l.51-.09c-3.6 0-4.1.34-3.41.42l.56-.05c.77-.06 1.55-.19 2.34-.28z"/>
    <path fill="#1C2175" d="M184 285.16a5.6114 5.6114 0 01-2.17-.43L89.52 246.4a5.6439 5.6439 0 01-2.5456-2.083 5.6472 5.6472 0 01-.9544-3.147V208.4a5.6472 5.6472 0 01.9544-3.147 5.6439 5.6439 0 012.5456-2.083l.63-.27-.64-.26a5.6688 5.6688 0 01-2.548-2.083A5.6697 5.6697 0 0186 197.41v-79.84a5.683 5.683 0 01.9567-3.15 5.6807 5.6807 0 012.5433-2.09L181.83 74a5.6488 5.6488 0 014.35 0l26 10.82a5.6596 5.6596 0 013 3 5.7904 5.7904 0 014.31 0l27.08 11.26a5.6408 5.6408 0 013 3 5.6408 5.6408 0 014.29 0l24.5 10.16c1.035.43 1.92 1.158 2.543 2.09.623.933.956 2.029.957 3.15v123.6a5.6484 5.6484 0 01-.954 3.147 5.6502 5.6502 0 01-2.546 2.083L257 255.33a5.6558 5.6558 0 01-4.35 0l-23.1-9.59a5.6831 5.6831 0 01-2.543-2.09 5.6818 5.6818 0 01-.957-3.15v-14.94l-14.67 6.09v38.84a5.6818 5.6818 0 01-.957 3.15 5.6831 5.6831 0 01-2.543 2.09l-21.68 9c-.697.29-1.445.436-2.2.43zm-86.64-47.78l86.64 36 16-6.65v-38.86a5.6695 5.6695 0 013.49-5.24l26-10.8a5.6604 5.6604 0 017.85 5.23v19.66L254.8 244l15.84-6.58v-116l-18.83-7.81-5.16 2.15c-.862.359-1.8.5-2.729.409a5.6732 5.6732 0 01-2.599-.927 5.6703 5.6703 0 01-1.853-2.045c-.44-.824-.67-1.743-.669-2.677v-2.32l-21.4-8.89-5.19 2.15a5.69 5.69 0 01-2.724.399 5.6767 5.6767 0 01-2.592-.93 5.6773 5.6773 0 01-1.85-2.0392 5.6796 5.6796 0 01-.674-2.6698v-2.31L184 85.37l-86.64 36v72.27l9.74 4a5.6705 5.6705 0 013.492 5.235 5.6705 5.6705 0 01-3.492 5.235l-9.74 4.05v25.22z"/>
    <path fill="#6DA2D7" d="M276.31 117.57L184 155.9l-92.3101-38.33L184 79.24l26 10.81-70.27 29.19 7.34 3c20-8.3 55-22.85 70.28-29.19l27.08 11.25-70.28 29.18 7.35 3.05 70.28-29.18 24.53 10.22z"/>
    <path fill="#93DFF6" d="M210 96.15l-62.93 26.14-7.34-3L210 90.05v6.1zm34.47 14.3l-62.93 26.13-7.35-3.05 70.28-29.18v6.1z"/>
    <path fill="#5273BA" d="M161.72 226.49v11l-70-29.08 13.24-5.5 56.76 23.58z"/>
    <path fill="url(#paint0_linear)" d="M113.6 161.05v11l70.4 29.23v78.22l-92.3101-38.33V208.4l70.0001 29.08v-11l-56.76-23.58-13.2401-5.49v-79.84L184 155.9v34.39l-70.4-29.24z"/>
    <path fill="#1C2175" d="M126.83 166.54L113.6 172v-11l13.23 5.54z"/>
    <path fill="#5273BA" d="M184 190.29v11L113.6 172l13.23-5.5L184 190.29z"/>
    <path fill="url(#paint1_linear)" d="M184 155.9v123.6l21.68-9v-42.64l26-10.8 23.11-9.6v42.64l21.51-8.93v-123.6L184 155.9zm70.8 16l-49.12 20.4v-10.89L254.8 161v10.9z"/>
    <path fill="url(#paint2_linear)" d="M236 134.32l-24.7 44.76 23.95-9.93 24.71-44.78-23.96 9.95zm-9 3.74l-14.47 6L184 195.7v20.22l19.65-35.62L227 138.06zm-21.29 54.21v-3L184 228.5V262l19.49-35.32 24-43.43-21.78 9.02z"/>
    <path fill="#1C2175" d="M254.8 161v10.86l-13.31-5.33L254.8 161z"/>
    <path fill="#5273BA" d="M254.8 171.87l-49.12 20.4v-10.86l35.81-14.87 13.31 5.33zm0 35.59v42.64l-23.11-9.6v-23.44l23.11-9.6z"/>
    <path fill="#1C2175" d="M353 295.53a8.5156 8.5156 0 01-3.132 3.338 8.5202 8.5202 0 01-4.408 1.232h-17.09c-1.427 0-2.83-.359-4.081-1.044a8.496 8.496 0 01-3.079-2.876l-.61-.95a8.5014 8.5014 0 01-3.138 3.551 8.5012 8.5012 0 01-4.552 1.319h-14.67a8.4584 8.4584 0 01-4.9-1.56 8.4584 8.4584 0 01-4.9 1.56h-40c-2.254 0-4.416-.896-6.01-2.49a8.496 8.496 0 01-2.49-6.01v-33.48h-7.25v33.48c0 2.254-.896 4.416-2.49 6.01a8.5002 8.5002 0 01-6.01 2.49h-15c-2.254 0-4.416-.896-6.01-2.49a8.496 8.496 0 01-2.49-6.01v-33.48h-7.17v34c0 2.254-.896 4.416-2.49 6.01a8.5002 8.5002 0 01-6.01 2.49h-8.24a8.5096 8.5096 0 01-3.426-.726 8.5096 8.5096 0 01-2.844-2.044l-13.24-14.5v8.22a8.507 8.507 0 01-2.493 6.007 8.5087 8.5087 0 01-6.007 2.493H134.1a8.4002 8.4002 0 01-5.69-2.19 8.4674 8.4674 0 01-5.69 2.19h-15.07a8.511 8.511 0 01-6.008-2.493 8.5086 8.5086 0 01-2.492-6.007v-20.33l-7.67 23a8.4916 8.4916 0 01-3.0891 4.213 8.4898 8.4898 0 01-4.9709 1.607H72.35a8.5137 8.5137 0 01-4.9729-1.61 8.5186 8.5186 0 01-3.0971-4.21l-2.07-6.23-1.92 6.1a8.4971 8.4971 0 01-3.0687 4.333 8.4978 8.4978 0 01-5.0413 1.667h-11.3a8.4795 8.4795 0 01-8.06-5.82l-18.36-55.17a8.4993 8.4993 0 014.1872-10.255 8.495 8.495 0 013.8728-.935h16.17a8.5143 8.5143 0 015.171 1.761 8.516 8.516 0 013.039 4.539l1 3.7 1.16-3.93a8.5065 8.5065 0 013.0695-4.385 8.5091 8.5091 0 015.0805-1.685h9.73a8.502 8.502 0 015.0533 1.661 8.5018 8.5018 0 013.0767 4.339l1.7 5.62 1.52-5.44a8.4973 8.4973 0 013.0436-4.486 8.5016 8.5016 0 015.1364-1.734h15.31a8.3048 8.3048 0 012.93.53 8.1574 8.1574 0 012.94-.53h15.07a8.5032 8.5032 0 015.35 1.89 8.4766 8.4766 0 012.749-1.854 8.4618 8.4618 0 013.251-.656h8.31c1.166 0 2.32.24 3.39.705a8.5125 8.5125 0 012.83 1.995l13.22 14.18v-7.76a8.5102 8.5102 0 018.5-8.5H185a8.3863 8.3863 0 013.26.65 8.3736 8.3736 0 013.25-.65h50.54a8.3614 8.3614 0 013.17.62c1.01-.411 2.09-.621 3.18-.62h39.86a8.4262 8.4262 0 015 1.62 8.4262 8.4262 0 015-1.62h23.15c18.31 0 31.1 12.08 31.1 29.38a27.1308 27.1308 0 01-7.34 18.95l7.3 10.48a8.5063 8.5063 0 011.502 4.341 8.5091 8.5091 0 01-.972 4.489z"/>
    <path fill="#fff" d="M101.78 231.43L83.41 286.6H72.35L62 255.45l-9.82 31.15h-11.3l-18.36-55.17h16.17l6.31 23.7 2.51 9.1 2.59-9.18 7.07-23.62h9.73l7 23.07 3.1 10.68 3-10.68 6.43-23.07h15.35zm5.87 0h15.07v55.17h-15.07v-55.17zm77.35 0v55.72h-8.24l-28-30.68v30.13H134.1v-55.79h8.31l27.94 30v-29.38H185zm57.07 13.19h-17.9v42h-15v-42h-17.64v-13.19h50.54v13.19zm46.37 29.03v13h-40v-55.22h39.86v13h-25v7.85h22v12.82h-22v8.55h25.14zm30.91-1.18h-6.44v14.13h-14.67v-55.17h23.15c14.2 0 22.6 8.95 22.6 20.88.064 3.558-.883 7.061-2.731 10.103a18.7988 18.7988 0 01-7.709 7.077l11.93 17.11h-17.11l-9.02-14.13zM312.91 260h7.3c5.42 0 8.79-3.46 8.79-7.85 0-4.63-3.22-8.24-9-8.24h-7.07l-.02 16.09z"/>
    <path fill="url(#paint3_linear)" d="M36.7 274.05a200.0091 200.0091 0 0121.6399-7L52.18 286.6h-11.3l-4.18-12.55z"/>
    <path fill="url(#paint4_linear)" d="M77.73 262.56c4.67-.93 9.53-1.81 14.55-2.61l-8.87 26.65H72.35l-7.09-21.31c3.56-.853 7.2267-1.667 11-2.44l1.47-.29z"/>
    <path fill="url(#paint5_linear)" d="M107.65 257.73c4.9-.62 9.923-1.183 15.07-1.69v30.56h-15.07v-28.87z"/>
    <path fill="url(#paint6_linear)" d="M185 253.08v34.07h-8.24l-28-30.68v30.13H134.1V255c9.49-.75 19.31-1.29 29.39-1.61l6.86 7.36v-7.54a590.91 590.91 0 0114.65-.16v.03z"/>
    <path fill="url(#paint7_linear)" d="M209.19 253.51c5.06.18 10.06.417 15 .71v32.38h-15v-33.09z"/>
    <path fill="url(#paint8_linear)" d="M263.25 273.65h25.19v13h-40v-30.5c13.08 1.31 25.41 3 36.8 5.08v3.87h-22l.01 8.55z"/>
    <path fill="url(#paint9_linear)" d="M345.48 286.6h-17.11l-9-14.13h-6.44v14.13h-14.69v-22.8c15.83 3.45 29.37 7.61 39.91 12.29l7.33 10.51z"/>
    <defs>
        <linearGradient id="paint0_linear" x1="91.6899" x2="184" y1="198.53" y2="198.53" gradientUnits="userSpaceOnUse">
            <stop stop-color="#94E0F7"/>
            <stop offset="1" stop-color="#fff"/>
        </linearGradient>
        <linearGradient id="paint1_linear" x1="18182.5" x2="26702.7" y1="38418.9" y2="38418.9" gradientUnits="userSpaceOnUse">
            <stop stop-color="#94E0F7"/>
            <stop offset="1" stop-color="#fff"/>
        </linearGradient>
        <linearGradient id="paint2_linear" x1="184" x2="259.93" y1="193.17" y2="193.17" gradientUnits="userSpaceOnUse">
            <stop stop-color="#94E0F7"/>
            <stop offset=".01" stop-color="#99E1F7"/>
            <stop offset=".12" stop-color="#B8EAFA"/>
            <stop offset=".24" stop-color="#D2F2FC"/>
            <stop offset=".37" stop-color="#E6F8FD"/>
            <stop offset=".52" stop-color="#F4FCFE"/>
            <stop offset=".7" stop-color="#FDFEFF"/>
            <stop offset="1" stop-color="#fff"/>
        </linearGradient>
        <linearGradient id="paint3_linear" x1="1303.07" x2="1303.07" y1="6612.99" y2="6230.59" gradientUnits="userSpaceOnUse">
            <stop stop-color="#94E0F7"/>
            <stop offset="1" stop-color="#fff"/>
        </linearGradient>
        <linearGradient id="paint4_linear" x1="2490.85" x2="2490.85" y1="8910.54" y2="8200.32" gradientUnits="userSpaceOnUse">
            <stop stop-color="#94E0F7"/>
            <stop offset="1" stop-color="#fff"/>
        </linearGradient>
        <linearGradient id="paint5_linear" x1="2009.18" x2="2009.18" y1="10175.8" y2="9241.9" gradientUnits="userSpaceOnUse">
            <stop stop-color="#94E0F7"/>
            <stop offset="1" stop-color="#fff"/>
        </linearGradient>
        <linearGradient id="paint6_linear" x1="8815.6" x2="8815.6" y1="11340.8" y2="10179" gradientUnits="userSpaceOnUse">
            <stop stop-color="#94E0F7"/>
            <stop offset="1" stop-color="#fff"/>
        </linearGradient>
        <linearGradient id="paint7_linear" x1="3624.39" x2="3624.39" y1="10994.5" y2="9899.57" gradientUnits="userSpaceOnUse">
            <stop stop-color="#94E0F7"/>
            <stop offset="1" stop-color="#fff"/>
        </linearGradient>
        <linearGradient id="paint8_linear" x1="11425.6" x2="11425.6" y1="10156.4" y2="9227.72" gradientUnits="userSpaceOnUse">
            <stop stop-color="#94E0F7"/>
            <stop offset="1" stop-color="#fff"/>
        </linearGradient>
        <linearGradient id="paint9_linear" x1="16022.6" x2="16022.6" y1="7664.69" y2="7144.85" gradientUnits="userSpaceOnUse">
            <stop stop-color="#94E0F7"/>
            <stop offset="1" stop-color="#fff"/>
        </linearGradient>
    </defs>
</svg>
