<svg width="181" height="197" viewBox="0 0 181 197" xmlns="http://www.w3.org/2000/svg"><title>Group 28</title><g fill="none" fill-rule="evenodd"><path d="M159.837 90.978V80.364c-4.04 1.676-8.444 3.506-13.01 5.403-11.755 4.88-24.58 10.207-35.006 14.536v10.615c14.48-6.01 33.58-13.942 48.02-19.94zm21.022-53.083v120.817l-21.028 8.73v-41.675c-6.815 2.832-14.67 6.094-22.59 9.383-8.856 3.676-17.786 7.386-25.426 10.557v41.674l-21.19 8.807V75.367l90.23-37.47z" fill="#DB7D0B"/><path d="M180.86 37.895l-90.23 37.47L.404 37.895 90.63.428l25.46 10.57c-14.895 6.187-49.177 20.42-68.696 28.53l7.18 2.98 61.516-25.545c2.703-1.12 5.125-2.128 7.18-2.982h.003l26.47 11s-42.01 17.44-68.7 28.525l7.183 2.983 61.516-25.544 7.18-2.98L180.86 37.9z" fill="#881AE8"/><path d="M159.837 125.767v41.674l-22.59-9.38v-22.91c7.92-3.29 15.775-6.55 22.59-9.38m0-45.402V90.98l-13.01-5.21c4.566-1.9 8.97-3.73 13.01-5.405" fill="#3A0FBC"/><path d="M146.827 85.767l13.01 5.21c-14.438 6-33.54 13.93-48.016 19.94v-10.614l35.01-14.536" fill="#881AE8"/><path d="M149.742 30.938L88.226 56.482 81.044 53.5c26.69-11.084 68.698-28.525 68.698-28.525v5.963zm-33.652-19.94v5.965C99.2 23.98 71.403 35.52 54.573 42.51l-7.18-2.983c19.52-8.108 53.802-22.342 68.697-28.53" fill="#DB7D0B"/><path d="M90.63 119.72v76.462L.404 158.712v-32.03l68.448 28.422v-10.74c-.015-.01-35.678-14.817-55.512-23.053-7.642-3.17-12.935-5.37-12.935-5.37V37.9l90.228 37.47v33.613l-55.89-23.21L21.82 80.4v10.745l68.81 28.575z" fill="#FFBD17"/><path d="M90.63 108.978v10.742L21.82 91.145v-.008l12.925-5.367C64.34 98.062 90.63 108.978 90.63 108.978m-21.78 35.385v10.74C68.83 155.096.403 126.68.403 126.68l12.935-5.37c19.834 8.238 55.497 23.046 55.513 23.054" fill="#881AE8"/><path d="M34.743 85.77l-12.925 5.367V80.4l12.925 5.37" fill="#3A0FBC"/></g></svg>